<mxfile host="app.diagrams.net" modified="2023-11-09T08:30:20.202Z" agent="5.0 (Macintosh; Intel Mac OS X 10_15_7) AppleWebKit/537.36 (KHTML, like Gecko) Chrome/118.0.0.0 Safari/537.36" etag="IatAi8cLhSOrTHbMrUJ_" version="20.5.1" type="github">
  <diagram id="RY06TjG_yhDahZXBcoNu" name="第 1 页">
    <mxGraphModel dx="1082" dy="690" grid="1" gridSize="10" guides="1" tooltips="1" connect="1" arrows="1" fold="1" page="1" pageScale="1" pageWidth="827" pageHeight="1169" math="0" shadow="0">
      <root>
        <mxCell id="0" />
        <mxCell id="1" parent="0" />
        <mxCell id="e2D0oAJBa6Ochv6Jm90V-27" value="" style="rounded=0;whiteSpace=wrap;html=1;" vertex="1" parent="1">
          <mxGeometry x="120" y="10" width="670" height="440" as="geometry" />
        </mxCell>
        <mxCell id="e2D0oAJBa6Ochv6Jm90V-19" value="" style="rounded=0;whiteSpace=wrap;html=1;dashed=1;" vertex="1" parent="1">
          <mxGeometry x="520" y="80" width="210" height="325" as="geometry" />
        </mxCell>
        <mxCell id="e2D0oAJBa6Ochv6Jm90V-7" style="edgeStyle=orthogonalEdgeStyle;rounded=0;orthogonalLoop=1;jettySize=auto;html=1;exitX=1;exitY=0.5;exitDx=0;exitDy=0;entryX=0;entryY=0.5;entryDx=0;entryDy=0;" edge="1" parent="1" source="e2D0oAJBa6Ochv6Jm90V-2" target="e2D0oAJBa6Ochv6Jm90V-6">
          <mxGeometry relative="1" as="geometry" />
        </mxCell>
        <mxCell id="e2D0oAJBa6Ochv6Jm90V-2" value="Create Epoll" style="text;html=1;strokeColor=none;fillColor=none;align=center;verticalAlign=middle;whiteSpace=wrap;rounded=0;" vertex="1" parent="1">
          <mxGeometry x="180" y="85" width="100" height="30" as="geometry" />
        </mxCell>
        <mxCell id="e2D0oAJBa6Ochv6Jm90V-26" style="edgeStyle=orthogonalEdgeStyle;rounded=0;orthogonalLoop=1;jettySize=auto;html=1;exitX=1;exitY=0.5;exitDx=0;exitDy=0;entryX=0;entryY=0.5;entryDx=0;entryDy=0;" edge="1" parent="1" source="e2D0oAJBa6Ochv6Jm90V-3" target="e2D0oAJBa6Ochv6Jm90V-5">
          <mxGeometry relative="1" as="geometry" />
        </mxCell>
        <mxCell id="e2D0oAJBa6Ochv6Jm90V-3" value="Add FD" style="text;html=1;strokeColor=none;fillColor=none;align=center;verticalAlign=middle;whiteSpace=wrap;rounded=0;" vertex="1" parent="1">
          <mxGeometry x="220" y="365" width="60" height="30" as="geometry" />
        </mxCell>
        <mxCell id="e2D0oAJBa6Ochv6Jm90V-5" value="map&amp;lt;fd,callback&amp;gt;" style="rounded=1;whiteSpace=wrap;html=1;" vertex="1" parent="1">
          <mxGeometry x="360" y="360" width="120" height="40" as="geometry" />
        </mxCell>
        <mxCell id="e2D0oAJBa6Ochv6Jm90V-11" style="edgeStyle=orthogonalEdgeStyle;rounded=0;orthogonalLoop=1;jettySize=auto;html=1;exitX=0.5;exitY=1;exitDx=0;exitDy=0;dashed=1;" edge="1" parent="1" source="e2D0oAJBa6Ochv6Jm90V-6" target="e2D0oAJBa6Ochv6Jm90V-8">
          <mxGeometry relative="1" as="geometry" />
        </mxCell>
        <mxCell id="e2D0oAJBa6Ochv6Jm90V-6" value="syscall.epoll_create" style="rounded=1;whiteSpace=wrap;html=1;" vertex="1" parent="1">
          <mxGeometry x="360" y="80" width="120" height="40" as="geometry" />
        </mxCell>
        <mxCell id="e2D0oAJBa6Ochv6Jm90V-13" style="edgeStyle=orthogonalEdgeStyle;rounded=0;orthogonalLoop=1;jettySize=auto;html=1;exitX=1;exitY=0.5;exitDx=0;exitDy=0;entryX=0.005;entryY=0.306;entryDx=0;entryDy=0;entryPerimeter=0;" edge="1" parent="1" source="e2D0oAJBa6Ochv6Jm90V-8">
          <mxGeometry relative="1" as="geometry">
            <mxPoint x="521.05" y="179.45000000000005" as="targetPoint" />
          </mxGeometry>
        </mxCell>
        <mxCell id="e2D0oAJBa6Ochv6Jm90V-8" value="start wait goroutine" style="rounded=1;whiteSpace=wrap;html=1;" vertex="1" parent="1">
          <mxGeometry x="360" y="160" width="120" height="40" as="geometry" />
        </mxCell>
        <mxCell id="e2D0oAJBa6Ochv6Jm90V-20" style="edgeStyle=orthogonalEdgeStyle;rounded=0;orthogonalLoop=1;jettySize=auto;html=1;exitX=0.5;exitY=1;exitDx=0;exitDy=0;strokeColor=none;" edge="1" parent="1" source="e2D0oAJBa6Ochv6Jm90V-15" target="e2D0oAJBa6Ochv6Jm90V-16">
          <mxGeometry relative="1" as="geometry" />
        </mxCell>
        <mxCell id="e2D0oAJBa6Ochv6Jm90V-21" style="edgeStyle=orthogonalEdgeStyle;rounded=0;orthogonalLoop=1;jettySize=auto;html=1;exitX=0.5;exitY=1;exitDx=0;exitDy=0;" edge="1" parent="1" source="e2D0oAJBa6Ochv6Jm90V-15" target="e2D0oAJBa6Ochv6Jm90V-16">
          <mxGeometry relative="1" as="geometry" />
        </mxCell>
        <mxCell id="e2D0oAJBa6Ochv6Jm90V-15" value="events = epoll_wati(-1)" style="rounded=0;whiteSpace=wrap;html=1;" vertex="1" parent="1">
          <mxGeometry x="545" y="120" width="160" height="40" as="geometry" />
        </mxCell>
        <mxCell id="e2D0oAJBa6Ochv6Jm90V-22" style="edgeStyle=orthogonalEdgeStyle;rounded=0;orthogonalLoop=1;jettySize=auto;html=1;exitX=0.5;exitY=1;exitDx=0;exitDy=0;" edge="1" parent="1" source="e2D0oAJBa6Ochv6Jm90V-16" target="e2D0oAJBa6Ochv6Jm90V-17">
          <mxGeometry relative="1" as="geometry" />
        </mxCell>
        <mxCell id="e2D0oAJBa6Ochv6Jm90V-25" style="edgeStyle=orthogonalEdgeStyle;rounded=0;orthogonalLoop=1;jettySize=auto;html=1;exitX=0;exitY=0.5;exitDx=0;exitDy=0;" edge="1" parent="1" source="e2D0oAJBa6Ochv6Jm90V-16" target="e2D0oAJBa6Ochv6Jm90V-5">
          <mxGeometry relative="1" as="geometry" />
        </mxCell>
        <mxCell id="e2D0oAJBa6Ochv6Jm90V-16" value="get the callback by fd" style="rounded=0;whiteSpace=wrap;html=1;" vertex="1" parent="1">
          <mxGeometry x="545" y="195" width="160" height="40" as="geometry" />
        </mxCell>
        <mxCell id="e2D0oAJBa6Ochv6Jm90V-23" style="edgeStyle=orthogonalEdgeStyle;rounded=0;orthogonalLoop=1;jettySize=auto;html=1;exitX=0.5;exitY=1;exitDx=0;exitDy=0;" edge="1" parent="1" source="e2D0oAJBa6Ochv6Jm90V-17" target="e2D0oAJBa6Ochv6Jm90V-18">
          <mxGeometry relative="1" as="geometry" />
        </mxCell>
        <mxCell id="e2D0oAJBa6Ochv6Jm90V-17" value="execute callback func" style="rounded=0;whiteSpace=wrap;html=1;" vertex="1" parent="1">
          <mxGeometry x="545" y="270" width="160" height="40" as="geometry" />
        </mxCell>
        <mxCell id="e2D0oAJBa6Ochv6Jm90V-18" value="callback func handle io data" style="rounded=0;whiteSpace=wrap;html=1;" vertex="1" parent="1">
          <mxGeometry x="545" y="350" width="160" height="40" as="geometry" />
        </mxCell>
        <mxCell id="e2D0oAJBa6Ochv6Jm90V-24" value="&lt;b&gt;async goroutine&lt;/b&gt;" style="text;html=1;strokeColor=none;fillColor=none;align=center;verticalAlign=middle;whiteSpace=wrap;rounded=0;" vertex="1" parent="1">
          <mxGeometry x="572.5" y="80" width="105" height="30" as="geometry" />
        </mxCell>
        <mxCell id="e2D0oAJBa6Ochv6Jm90V-28" value="https://github.com/mailru/easygo/blob/master/netpoll/netpoll.go" style="text;html=1;strokeColor=none;fillColor=none;align=center;verticalAlign=middle;whiteSpace=wrap;rounded=0;" vertex="1" parent="1">
          <mxGeometry x="345" y="10" width="220" height="30" as="geometry" />
        </mxCell>
      </root>
    </mxGraphModel>
  </diagram>
</mxfile>
